<?xml version="1.0" encoding="UTF-8" standalone="no"?>
<!-- Created with Inkscape (http://www.inkscape.org/) -->

<svg
   width="85.112007mm"
   height="48.774292mm"
   viewBox="0 0 85.112007 48.774292"
   version="1.1"
   id="svg52665"
   xmlns="http://www.w3.org/2000/svg"
   xmlns:svg="http://www.w3.org/2000/svg">
  <defs
     id="defs52662" />
  <g
     id="layer1"
     transform="translate(-86.667554,-75.921748)">
    <g
       id="g46978"
       transform="translate(70.560108,35.014108)">
      <g
         id="g9528"
         transform="translate(-42.928746,-188.79868)">
        <path
           id="rect2817"
           style="fill:#ffffff;fill-opacity:1;fill-rule:evenodd;stroke:#666666;stroke-width:0;stroke-linecap:round;stroke-linejoin:round;stroke-miterlimit:4;stroke-dasharray:none"
           d="m 230.96289,882.16992 c -4.33924,0 -7.83398,3.49279 -7.83398,7.83203 v 84.68555 c 0,4.33924 3.49474,7.83398 7.83398,7.83398 h 84.68555 c 4.33924,0 7.83203,-3.49474 7.83203,-7.83398 v -84.68555 c 0,-4.33924 -3.49279,-7.83203 -7.83203,-7.83203 z m 32.32031,19.45313 h 32.72266 v 15.7539 H 267.2832 v 12.97071 h 17.40625 v 16.17968 H 267.2832 v 16.53516 h -14.61523 -2.05274 l 0.53907,-20.53516 h 12.1289 v -8.17968 H 251.10156 V 913.375 h 12.18164 z m 4,4.00195 v 7.75 h 24.72266 v -7.75 z m -12.17968,11.75195 v 12.97071 h 8.17968 v -12.97071 z m 12.17968,16.97071 v 8.17968 h 13.40625 v -8.17968 z m -12.23242,12.17968 -0.33203,12.53516 h 8.56445 v -12.53516 z"
           transform="scale(0.26458334)" />
        <g
           id="g3557">
          <path
             style="fill:none;stroke:#ffffff;stroke-width:2.91042;stroke-linecap:round;stroke-linejoin:miter;stroke-miterlimit:4;stroke-dasharray:none;stroke-opacity:1"
             d="m 79.665569,234.83897 3.246532,3.22269 6.98153,-6.90013"
             id="path3499" />
          <path
             style="fill:none;fill-opacity:1;stroke:#0ed984;stroke-width:1.5875;stroke-linecap:round;stroke-linejoin:miter;stroke-miterlimit:4;stroke-dasharray:none;stroke-opacity:1"
             d="m 79.665569,234.83897 3.246532,3.22269 6.98153,-6.90013"
             id="path3171" />
        </g>
      </g>
      <g
         aria-label="FACILITATASKS"
         id="text11534"
         style="font-size:12.7204px;line-height:1.25;font-family:'Major Mono Display';-inkscape-font-specification:'Major Mono Display';fill:#ffffff;stroke-width:0.31801"
         transform="translate(-0.58671687)">
        <g
           id="g52452">
          <path
             d="m 22.01129,75.932039 h -3.561712 v 2.111587 h 3.459949 v 1.679093 h -3.459949 v 3.434508 h -1.755415 v -8.90428 h 5.317127 z"
             style="font-weight:bold;-inkscape-font-specification:'SVN-Gilroy Bold'"
             id="path50076" />
          <path
             d="m 28.625885,83.157227 -0.534257,-1.602771 h -3.548991 l -0.534257,1.602771 h -1.89534 l 3.116498,-8.90428 h 2.175189 l 3.129218,8.90428 z m -3.523551,-3.243702 h 2.442317 L 26.323493,76.27549 Z"
             style="font-weight:bold;-inkscape-font-specification:'SVN-Gilroy Bold'"
             id="path50078" />
          <path
             d="m 35.304066,83.335312 q -2.009823,0 -3.320024,-1.335642 -1.310201,-1.322921 -1.310201,-3.294583 0,-1.984383 1.310201,-3.294584 1.310201,-1.335642 3.320024,-1.335642 0.610579,0 1.170277,0.152645 0.572418,0.139924 1.068514,0.419773 0.496095,0.267128 0.890428,0.661461 0.407052,0.381612 0.699622,0.864987 l -1.513728,0.877708 q -0.33073,-0.61058 -0.94131,-0.94131 -0.610579,-0.33073 -1.373803,-0.33073 -1.297481,0 -2.098866,0.814105 -0.788665,0.826826 -0.788665,2.111587 0,1.27204 0.788665,2.098866 0.801385,0.814105 2.098866,0.814105 0.763224,0 1.373803,-0.33073 0.6233,-0.343451 0.94131,-0.928589 l 1.513728,0.877707 q -0.29257,0.483375 -0.699622,0.877708 -0.394333,0.381612 -0.890428,0.661461 -0.496096,0.267128 -1.068514,0.407052 -0.559698,0.152645 -1.170277,0.152645 z"
             style="font-weight:bold;-inkscape-font-specification:'SVN-Gilroy Bold'"
             id="path50080" />
          <path
             d="m 40.214122,74.252947 h 1.755415 v 8.90428 h -1.755415 z"
             style="font-weight:bold;-inkscape-font-specification:'SVN-Gilroy Bold'"
             id="path50082" />
          <path
             d="m 45.3786,81.478134 h 3.396347 v 1.679093 h -5.151762 v -8.90428 H 45.3786 Z"
             style="font-weight:bold;-inkscape-font-specification:'SVN-Gilroy Bold'"
             id="path50084" />
          <path
             d="m 49.767135,74.252947 h 1.755415 v 8.90428 h -1.755415 z"
             style="font-weight:bold;-inkscape-font-specification:'SVN-Gilroy Bold'"
             id="path50086" />
          <path
             d="m 59.065741,74.252947 v 1.679092 h -2.404155 v 7.225188 H 54.90617 v -7.225188 h -2.391435 v -1.679092 z"
             style="font-weight:bold;-inkscape-font-specification:'SVN-Gilroy Bold'"
             id="path50088" />
          <path
             d="m 65.120633,83.157227 -0.534257,-1.602771 h -3.548992 l -0.534256,1.602771 h -1.89534 l 3.116498,-8.90428 h 2.175188 l 3.129219,8.90428 z m -3.523551,-3.243702 h 2.442317 L 62.81824,76.27549 Z"
             style="font-weight:bold;-inkscape-font-specification:'SVN-Gilroy Bold'"
             id="path50090" />
          <path
             d="m 73.643293,74.252947 v 0.63602 h -2.798488 v 8.26826 h -0.686902 v -8.26826 h -2.798488 v -0.63602 z"
             style="font-weight:300;-inkscape-font-specification:'SVN-Gilroy Light'"
             id="path50092" />
          <path
             d="m 80.397796,83.157227 -0.864987,-2.264232 h -4.46486 l -0.864987,2.264232 h -0.712343 l 3.459949,-8.90428 h 0.712342 l 3.447229,8.90428 z m -5.075439,-2.900252 h 3.968765 l -1.984383,-5.177202 z"
             style="font-weight:300;-inkscape-font-specification:'SVN-Gilroy Light'"
             id="path50094" />
          <path
             d="m 84.875369,83.297151 q -1.233879,0 -2.098866,-0.559698 -0.852267,-0.572418 -1.157556,-1.539168 l 0.585138,-0.343451 q 0.241688,0.839547 0.915869,1.322922 0.674181,0.470655 1.755415,0.470655 1.081234,0 1.653652,-0.483376 0.585139,-0.496095 0.585139,-1.29748 0,-0.725063 -0.559698,-1.132116 -0.534257,-0.381612 -1.742695,-0.775944 l -0.63602,-0.203527 -0.559697,-0.216247 q -0.394333,-0.165365 -0.546978,-0.267128 -0.178085,-0.114484 -0.432493,-0.30529 -0.241688,-0.190806 -0.356171,-0.381612 -0.114484,-0.203526 -0.203527,-0.470654 -0.08904,-0.279849 -0.08904,-0.61058 0,-1.081234 0.763224,-1.729974 0.775945,-0.661461 1.933501,-0.661461 1.043073,0 1.780856,0.521537 0.737783,0.508816 1.081234,1.348362 l -0.572418,0.31801 q -0.623299,-1.539168 -2.289672,-1.539168 -0.457934,0 -0.826826,0.127204 -0.368891,0.127204 -0.63602,0.356171 -0.267128,0.228967 -0.407053,0.546977 -0.139924,0.30529 -0.139924,0.686902 0,0.725062 0.508816,1.081234 0.508816,0.356171 1.666372,0.737783 0.737784,0.254408 1.144836,0.419773 0.432494,0.178086 0.890428,0.470655 0.483376,0.292569 0.699622,0.712342 0.216247,0.407053 0.216247,0.95403 0,1.119395 -0.801385,1.780856 -0.788665,0.661461 -2.124307,0.661461 z"
             style="font-weight:300;-inkscape-font-specification:'SVN-Gilroy Light'"
             id="path50096" />
          <path
             d="M 95.433278,83.157227 H 94.53013 l -4.464861,-4.388538 v 4.388538 h -0.674181 v -8.90428 h 0.674181 v 4.14685 l 4.337657,-4.14685 h 0.903148 l -4.503021,4.324936 z"
             style="font-weight:300;-inkscape-font-specification:'SVN-Gilroy Light'"
             id="path50098" />
          <path
             d="m 98.880481,83.297151 q -1.233879,0 -2.098866,-0.559698 -0.852267,-0.572418 -1.157556,-1.539168 l 0.585138,-0.343451 q 0.241687,0.839547 0.915869,1.322922 0.674181,0.470655 1.755415,0.470655 1.081234,0 1.653649,-0.483376 0.58514,-0.496095 0.58514,-1.29748 0,-0.725063 -0.5597,-1.132116 -0.53425,-0.381612 -1.742691,-0.775944 l -0.63602,-0.203527 -0.559698,-0.216247 q -0.394332,-0.165365 -0.546977,-0.267128 -0.178086,-0.114484 -0.432494,-0.30529 -0.241687,-0.190806 -0.356171,-0.381612 -0.114483,-0.203526 -0.203526,-0.470654 -0.08904,-0.279849 -0.08904,-0.61058 0,-1.081234 0.763224,-1.729974 0.775944,-0.661461 1.933501,-0.661461 1.043073,0 1.780852,0.521537 0.73778,0.508816 1.08123,1.348362 l -0.57241,0.31801 q -0.6233,-1.539168 -2.289672,-1.539168 -0.457935,0 -0.826826,0.127204 -0.368892,0.127204 -0.63602,0.356171 -0.267129,0.228967 -0.407053,0.546977 -0.139924,0.30529 -0.139924,0.686902 0,0.725062 0.508816,1.081234 0.508816,0.356171 1.666372,0.737783 0.737783,0.254408 1.144836,0.419773 0.432491,0.178086 0.890421,0.470655 0.48338,0.292569 0.69963,0.712342 0.21624,0.407053 0.21624,0.95403 0,1.119395 -0.80138,1.780856 -0.78867,0.661461 -2.124306,0.661461 z"
             style="font-weight:300;-inkscape-font-specification:'SVN-Gilroy Light'"
             id="path50100" />
        </g>
      </g>
      <g
         aria-label="Gestão de tarefas pessoais"
         id="text35319"
         style="font-size:4.23333px;line-height:1.25;font-family:'Major Mono Display';-inkscape-font-specification:'Major Mono Display';fill:#ffffff;stroke-width:0.107999"
         transform="translate(-0.07369887)">
        <path
           d="m 19.195276,87.366301 v 0.1778 q 0,0.579966 -0.397933,0.965199 -0.402166,0.380999 -1.054099,0.380999 -0.677333,0 -1.121832,-0.444499 -0.440267,-0.452967 -0.440267,-1.092199 0,-0.639233 0.440267,-1.087966 0.444499,-0.448733 1.113365,-0.448733 0.4064,0 0.753533,0.198966 0.351367,0.198967 0.529166,0.516467 l -0.338666,0.198966 q -0.0635,-0.118533 -0.160867,-0.2159 -0.09737,-0.1016 -0.224366,-0.169333 -0.122767,-0.07197 -0.2667,-0.110066 -0.143933,-0.0381 -0.296333,-0.0381 -0.512233,0 -0.833966,0.334433 -0.325966,0.334433 -0.325966,0.821266 0,0.486833 0.325966,0.821266 0.3302,0.330199 0.850899,0.330199 0.220134,0 0.402167,-0.05503 0.182033,-0.05927 0.3175,-0.160866 0.135466,-0.105834 0.220133,-0.249767 0.08467,-0.143933 0.1143,-0.3175 h -1.087966 v -0.355599 z"
           style="font-family:SVN-Gilroy;-inkscape-font-specification:SVN-Gilroy"
           id="path52275" />
        <path
           d="m 19.893768,87.946267 q 0.05503,0.283633 0.258233,0.440266 0.2032,0.156633 0.508,0.156633 0.419099,0 0.609599,-0.309033 l 0.313267,0.1778 q -0.313267,0.478366 -0.931333,0.478366 -0.499533,0 -0.821266,-0.313266 -0.313266,-0.321733 -0.313266,-0.800099 0,-0.4826 0.309033,-0.795866 0.309033,-0.3175 0.800099,-0.3175 0.465666,0 0.757766,0.3302 0.296333,0.321733 0.296333,0.787399 0,0.08467 -0.0127,0.1651 z m 0.732366,-0.935566 q -0.296333,0 -0.491066,0.169333 -0.194733,0.1651 -0.2413,0.4445 H 21.3077 q -0.04657,-0.3048 -0.237066,-0.4572 -0.1905,-0.156633 -0.4445,-0.156633 z"
           style="font-family:SVN-Gilroy;-inkscape-font-specification:SVN-Gilroy"
           id="path52277" />
        <path
           d="m 22.33639,87.290101 q 0,0.122766 0.118533,0.198966 0.122767,0.07197 0.300567,0.118533 0.122766,0.0254 0.258233,0.06773 0.135466,0.04233 0.249766,0.1143 0.1143,0.07197 0.186267,0.186266 0.07197,0.110067 0.07197,0.2794 0,0.287866 -0.224366,0.461433 -0.224367,0.173566 -0.567266,0.173566 -0.309033,0 -0.529167,-0.131233 Q 21.98079,88.6236 21.887657,88.395 l 0.3175,-0.182033 q 0.0508,0.1524 0.1905,0.241299 0.1397,0.0889 0.334433,0.0889 0.182033,0 0.300566,-0.06773 0.118533,-0.07197 0.118533,-0.220133 0,-0.122767 -0.122766,-0.194733 -0.118533,-0.0762 -0.296333,-0.118533 -0.127,-0.03387 -0.262467,-0.0762 -0.135466,-0.04233 -0.249766,-0.110067 -0.110067,-0.07197 -0.182033,-0.182033 -0.07197,-0.110067 -0.07197,-0.2794 0,-0.275166 0.211666,-0.452966 0.2159,-0.1778 0.537633,-0.1778 0.258233,0 0.4572,0.118533 0.2032,0.1143 0.3048,0.321733 l -0.309033,0.173567 q -0.1143,-0.270933 -0.452967,-0.270933 -0.156633,0 -0.266699,0.0762 -0.110067,0.07197 -0.110067,0.207433 z"
           style="font-family:SVN-Gilroy;-inkscape-font-specification:SVN-Gilroy"
           id="path52279" />
        <path
           d="m 25.024545,87.074201 h -0.563033 v 1.147232 q 0,0.122767 0.03387,0.186267 0.0381,0.05927 0.105833,0.08467 0.07197,0.0254 0.1778,0.0254 0.105833,-0.0042 0.245533,-0.0127 v 0.3302 q -0.4826,0.0635 -0.706966,-0.0762 -0.224367,-0.143933 -0.224367,-0.537633 v -1.147232 h -0.419099 v -0.3556 h 0.419099 v -0.482599 l 0.3683,-0.110067 v 0.592666 h 0.563033 z"
           style="font-family:SVN-Gilroy;-inkscape-font-specification:SVN-Gilroy"
           id="path52281" />
        <path
           d="m 26.569704,86.307968 q -0.1524,-0.127 -0.2286,-0.1143 -0.0762,0.0085 -0.0762,0.2159 h -0.309033 q 0,-0.211666 0.05503,-0.334433 0.05927,-0.127 0.1524,-0.173566 0.09313,-0.04657 0.207433,-0.02117 0.118533,0.0254 0.237067,0.110067 0.156633,0.126999 0.228599,0.118533 0.0762,-0.0127 0.0762,-0.2159 h 0.309033 q 0,0.211666 -0.05927,0.334433 -0.05503,0.122767 -0.148167,0.169333 -0.0889,0.04657 -0.207433,0.02117 -0.118533,-0.0254 -0.237066,-0.110067 z m 0.656166,0.410633 h 0.368299 v 2.116665 H 27.22587 V 88.4712 q -0.275167,0.419099 -0.8001,0.419099 -0.448732,0 -0.757766,-0.321733 -0.313266,-0.325966 -0.313266,-0.791632 0,-0.461433 0.313266,-0.7874 0.313267,-0.325966 0.757766,-0.325966 0.524933,0 0.8001,0.4191 z M 26.472337,88.5347 q 0.321733,0 0.537633,-0.2159 0.2159,-0.220133 0.2159,-0.541866 0,-0.321733 -0.2159,-0.537633 -0.2159,-0.220133 -0.537633,-0.220133 -0.3175,0 -0.533399,0.220133 -0.2159,0.2159 -0.2159,0.537633 0,0.321733 0.2159,0.541866 0.215899,0.2159 0.533399,0.2159 z"
           style="font-family:SVN-Gilroy;-inkscape-font-specification:SVN-Gilroy"
           id="path52283" />
        <path
           d="m 29.939432,88.568566 q -0.321734,0.321733 -0.791633,0.321733 -0.4699,0 -0.791633,-0.321733 -0.321733,-0.321733 -0.321733,-0.791632 0,-0.4699 0.321733,-0.791633 0.321733,-0.321733 0.791633,-0.321733 0.469899,0 0.791633,0.321733 0.325966,0.325966 0.325966,0.791633 0,0.465666 -0.325966,0.791632 z m -0.791633,-0.0381 q 0.3175,0 0.533399,-0.215899 0.2159,-0.2159 0.2159,-0.537633 0,-0.321733 -0.2159,-0.537633 -0.215899,-0.2159 -0.533399,-0.2159 -0.313267,0 -0.529166,0.2159 -0.2159,0.2159 -0.2159,0.537633 0,0.321733 0.2159,0.537633 0.215899,0.215899 0.529166,0.215899 z"
           style="font-family:SVN-Gilroy;-inkscape-font-specification:SVN-Gilroy"
           id="path52285" />
        <path
           d="m 33.512351,85.871935 h 0.368299 v 2.963331 H 33.512351 V 88.4712 q -0.275167,0.419099 -0.8001,0.419099 -0.448733,0 -0.757766,-0.321733 -0.313266,-0.325966 -0.313266,-0.791632 0,-0.461433 0.313266,-0.7874 0.313267,-0.325966 0.757766,-0.325966 0.524933,0 0.8001,0.4191 z M 32.758818,88.5347 q 0.321733,0 0.537633,-0.2159 0.2159,-0.220133 0.2159,-0.541866 0,-0.321733 -0.2159,-0.537633 -0.2159,-0.220133 -0.537633,-0.220133 -0.3175,0 -0.5334,0.220133 -0.215899,0.2159 -0.215899,0.537633 0,0.321733 0.215899,0.541866 0.2159,0.2159 0.5334,0.2159 z"
           style="font-family:SVN-Gilroy;-inkscape-font-specification:SVN-Gilroy"
           id="path52287" />
        <path
           d="m 34.69768,87.946267 q 0.05503,0.283633 0.258234,0.440266 0.203199,0.156633 0.507999,0.156633 0.4191,0 0.6096,-0.309033 l 0.313266,0.1778 q -0.313266,0.478366 -0.931333,0.478366 -0.499532,0 -0.821266,-0.313266 -0.313266,-0.321733 -0.313266,-0.800099 0,-0.4826 0.309033,-0.795866 0.309033,-0.3175 0.800099,-0.3175 0.465667,0 0.757766,0.3302 0.296334,0.321733 0.296334,0.787399 0,0.08467 -0.0127,0.1651 z m 0.732366,-0.935566 q -0.296333,0 -0.491066,0.169333 -0.194733,0.1651 -0.2413,0.4445 h 1.413933 q -0.04657,-0.3048 -0.237067,-0.4572 -0.1905,-0.156633 -0.4445,-0.156633 z"
           style="font-family:SVN-Gilroy;-inkscape-font-specification:SVN-Gilroy"
           id="path52289" />
        <path
           d="m 39.117261,87.074201 h -0.563033 v 1.147232 q 0,0.122767 0.03387,0.186267 0.0381,0.05927 0.105833,0.08467 0.07197,0.0254 0.1778,0.0254 0.105833,-0.0042 0.245533,-0.0127 v 0.3302 q -0.482599,0.0635 -0.706966,-0.0762 -0.224366,-0.143933 -0.224366,-0.537633 v -1.147232 h -0.4191 v -0.3556 h 0.4191 v -0.482599 l 0.368299,-0.110067 v 0.592666 h 0.563033 z"
           style="font-family:SVN-Gilroy;-inkscape-font-specification:SVN-Gilroy"
           id="path52291" />
        <path
           d="m 41.200045,86.718601 h 0.3683 v 2.116665 h -0.3683 V 88.4712 q -0.275166,0.419099 -0.800099,0.419099 -0.448733,0 -0.757766,-0.321733 -0.313267,-0.325966 -0.313267,-0.791632 0,-0.461433 0.313267,-0.7874 0.313266,-0.325966 0.757766,-0.325966 0.524933,0 0.800099,0.4191 z M 40.446513,88.5347 q 0.321733,0 0.537632,-0.2159 0.2159,-0.220133 0.2159,-0.541866 0,-0.321733 -0.2159,-0.537633 -0.215899,-0.220133 -0.537632,-0.220133 -0.3175,0 -0.5334,0.220133 -0.2159,0.2159 -0.2159,0.537633 0,0.321733 0.2159,0.541866 0.2159,0.2159 0.5334,0.2159 z"
           style="font-family:SVN-Gilroy;-inkscape-font-specification:SVN-Gilroy"
           id="path52293" />
        <path
           d="m 42.495442,87.074201 q 0.182033,-0.3937 0.660399,-0.3937 v 0.385233 q -0.270933,-0.0127 -0.465666,0.143933 -0.194733,0.156634 -0.194733,0.503767 v 1.121832 h -0.3683 v -2.116665 h 0.3683 z"
           style="font-family:SVN-Gilroy;-inkscape-font-specification:SVN-Gilroy"
           id="path52295" />
        <path
           d="m 43.773904,87.946267 q 0.05503,0.283633 0.258233,0.440266 0.2032,0.156633 0.507999,0.156633 0.4191,0 0.6096,-0.309033 l 0.313266,0.1778 q -0.313266,0.478366 -0.931332,0.478366 -0.499533,0 -0.821266,-0.313266 -0.313267,-0.321733 -0.313267,-0.800099 0,-0.4826 0.309034,-0.795866 0.309033,-0.3175 0.800099,-0.3175 0.465666,0 0.757766,0.3302 0.296333,0.321733 0.296333,0.787399 0,0.08467 -0.0127,0.1651 z m 0.732366,-0.935566 q -0.296333,0 -0.491066,0.169333 -0.194734,0.1651 -0.2413,0.4445 h 1.413932 q -0.04657,-0.3048 -0.237067,-0.4572 -0.190499,-0.156633 -0.444499,-0.156633 z"
           style="font-family:SVN-Gilroy;-inkscape-font-specification:SVN-Gilroy"
           id="path52297" />
        <path
           d="m 47.008155,86.172502 q -0.5588,-0.04233 -0.5588,0.482599 v 0.0635 h 0.5588 v 0.3556 h -0.5588 v 1.761065 h -0.3683 v -1.761065 h -0.338666 v -0.3556 h 0.338666 v -0.0635 q 0,-0.431799 0.237067,-0.647699 0.2413,-0.220133 0.690033,-0.1905 z"
           style="font-family:SVN-Gilroy;-inkscape-font-specification:SVN-Gilroy"
           id="path52299" />
        <path
           d="m 48.925851,86.718601 h 0.368299 v 2.116665 H 48.925851 V 88.4712 q -0.275167,0.419099 -0.8001,0.419099 -0.448733,0 -0.757766,-0.321733 -0.313266,-0.325966 -0.313266,-0.791632 0,-0.461433 0.313266,-0.7874 0.313267,-0.325966 0.757766,-0.325966 0.524933,0 0.8001,0.4191 z M 48.172318,88.5347 q 0.321733,0 0.537633,-0.2159 0.2159,-0.220133 0.2159,-0.541866 0,-0.321733 -0.2159,-0.537633 -0.2159,-0.220133 -0.537633,-0.220133 -0.3175,0 -0.5334,0.220133 -0.2159,0.2159 -0.2159,0.537633 0,0.321733 0.2159,0.541866 0.2159,0.2159 0.5334,0.2159 z"
           style="font-family:SVN-Gilroy;-inkscape-font-specification:SVN-Gilroy"
           id="path52301" />
        <path
           d="m 50.166209,87.290101 q 0,0.122766 0.118533,0.198966 0.122767,0.07197 0.300566,0.118533 0.122767,0.0254 0.258233,0.06773 0.135467,0.04233 0.249767,0.1143 0.1143,0.07197 0.186266,0.186266 0.07197,0.110067 0.07197,0.2794 0,0.287866 -0.224366,0.461433 -0.224367,0.173566 -0.567267,0.173566 -0.309033,0 -0.529166,-0.131233 Q 49.810609,88.6236 49.717476,88.395 l 0.3175,-0.182033 q 0.0508,0.1524 0.190499,0.241299 0.1397,0.0889 0.334433,0.0889 0.182034,0 0.300567,-0.06773 0.118533,-0.07197 0.118533,-0.220133 0,-0.122767 -0.122767,-0.194733 -0.118533,-0.0762 -0.296333,-0.118533 -0.126999,-0.03387 -0.262466,-0.0762 -0.135467,-0.04233 -0.249767,-0.110067 -0.110066,-0.07197 -0.182033,-0.182033 -0.07197,-0.110067 -0.07197,-0.2794 0,-0.275166 0.211666,-0.452966 0.2159,-0.1778 0.537633,-0.1778 0.258233,0 0.4572,0.118533 0.2032,0.1143 0.304799,0.321733 l -0.309033,0.173567 q -0.1143,-0.270933 -0.452966,-0.270933 -0.156633,0 -0.2667,0.0762 -0.110066,0.07197 -0.110066,0.207433 z"
           style="font-family:SVN-Gilroy;-inkscape-font-specification:SVN-Gilroy"
           id="path52303" />
        <path
           d="m 54.014289,86.663568 q 0.4445,0 0.757766,0.325966 0.313266,0.325967 0.313266,0.7874 0,0.465666 -0.313266,0.791632 -0.309033,0.321733 -0.757766,0.321733 -0.529166,0 -0.800099,-0.419099 v 1.210732 h -0.3683 v -2.963331 h 0.3683 v 0.364067 q 0.270933,-0.4191 0.800099,-0.4191 z m -0.04657,1.871132 q 0.3175,0 0.5334,-0.2159 0.2159,-0.220133 0.2159,-0.541866 0,-0.321733 -0.2159,-0.537633 -0.2159,-0.220133 -0.5334,-0.220133 -0.321733,0 -0.537633,0.220133 -0.215899,0.2159 -0.215899,0.537633 0,0.321733 0.215899,0.541866 0.2159,0.2159 0.537633,0.2159 z"
           style="font-family:SVN-Gilroy;-inkscape-font-specification:SVN-Gilroy"
           id="path52305" />
        <path
           d="m 55.783818,87.946267 q 0.05503,0.283633 0.258233,0.440266 0.2032,0.156633 0.508,0.156633 0.4191,0 0.609599,-0.309033 l 0.313267,0.1778 q -0.313267,0.478366 -0.931333,0.478366 -0.499533,0 -0.821266,-0.313266 -0.313266,-0.321733 -0.313266,-0.800099 0,-0.4826 0.309033,-0.795866 0.309033,-0.3175 0.800099,-0.3175 0.465667,0 0.757766,0.3302 0.296333,0.321733 0.296333,0.787399 0,0.08467 -0.0127,0.1651 z m 0.732366,-0.935566 q -0.296333,0 -0.491066,0.169333 -0.194733,0.1651 -0.2413,0.4445 h 1.413932 q -0.04657,-0.3048 -0.237066,-0.4572 -0.1905,-0.156633 -0.4445,-0.156633 z"
           style="font-family:SVN-Gilroy;-inkscape-font-specification:SVN-Gilroy"
           id="path52307" />
        <path
           d="m 58.226443,87.290101 q 0,0.122766 0.118533,0.198966 0.122767,0.07197 0.300566,0.118533 0.122767,0.0254 0.258234,0.06773 0.135466,0.04233 0.249766,0.1143 0.1143,0.07197 0.186267,0.186266 0.07197,0.110067 0.07197,0.2794 0,0.287866 -0.224366,0.461433 -0.224367,0.173566 -0.567267,0.173566 -0.309033,0 -0.529166,-0.131233 Q 57.870843,88.6236 57.77771,88.395 l 0.3175,-0.182033 q 0.0508,0.1524 0.190499,0.241299 0.1397,0.0889 0.334433,0.0889 0.182034,0 0.300567,-0.06773 0.118533,-0.07197 0.118533,-0.220133 0,-0.122767 -0.122766,-0.194733 -0.118534,-0.0762 -0.296334,-0.118533 -0.126999,-0.03387 -0.262466,-0.0762 -0.135467,-0.04233 -0.249766,-0.110067 -0.110067,-0.07197 -0.182034,-0.182033 -0.07197,-0.110067 -0.07197,-0.2794 0,-0.275166 0.211666,-0.452966 0.2159,-0.1778 0.537633,-0.1778 0.258233,0 0.4572,0.118533 0.2032,0.1143 0.3048,0.321733 l -0.309034,0.173567 q -0.114299,-0.270933 -0.452966,-0.270933 -0.156633,0 -0.2667,0.0762 -0.110066,0.07197 -0.110066,0.207433 z"
           style="font-family:SVN-Gilroy;-inkscape-font-specification:SVN-Gilroy"
           id="path52309" />
        <path
           d="m 60.034064,87.290101 q 0,0.122766 0.118533,0.198966 0.122767,0.07197 0.300566,0.118533 0.122767,0.0254 0.258234,0.06773 0.135466,0.04233 0.249766,0.1143 0.1143,0.07197 0.186267,0.186266 0.07197,0.110067 0.07197,0.2794 0,0.287866 -0.224366,0.461433 -0.224367,0.173566 -0.567267,0.173566 -0.309033,0 -0.529166,-0.131233 Q 59.678464,88.6236 59.585331,88.395 l 0.3175,-0.182033 q 0.0508,0.1524 0.190499,0.241299 0.1397,0.0889 0.334433,0.0889 0.182034,0 0.300567,-0.06773 0.118533,-0.07197 0.118533,-0.220133 0,-0.122767 -0.122766,-0.194733 -0.118534,-0.0762 -0.296334,-0.118533 -0.126999,-0.03387 -0.262466,-0.0762 -0.135467,-0.04233 -0.249766,-0.110067 -0.110067,-0.07197 -0.182034,-0.182033 -0.07197,-0.110067 -0.07197,-0.2794 0,-0.275166 0.211666,-0.452966 0.2159,-0.1778 0.537633,-0.1778 0.258233,0 0.4572,0.118533 0.2032,0.1143 0.3048,0.321733 l -0.309034,0.173567 q -0.114299,-0.270933 -0.452966,-0.270933 -0.156633,0 -0.2667,0.0762 -0.110066,0.07197 -0.110066,0.207433 z"
           style="font-family:SVN-Gilroy;-inkscape-font-specification:SVN-Gilroy"
           id="path52311" />
        <path
           d="m 63.441887,88.568566 q -0.321733,0.321733 -0.791632,0.321733 -0.4699,0 -0.791633,-0.321733 -0.321733,-0.321733 -0.321733,-0.791632 0,-0.4699 0.321733,-0.791633 0.321733,-0.321733 0.791633,-0.321733 0.469899,0 0.791632,0.321733 0.325967,0.325966 0.325967,0.791633 0,0.465666 -0.325967,0.791632 z m -0.791632,-0.0381 q 0.317499,0 0.533399,-0.215899 0.2159,-0.2159 0.2159,-0.537633 0,-0.321733 -0.2159,-0.537633 -0.2159,-0.2159 -0.533399,-0.2159 -0.313267,0 -0.529167,0.2159 -0.215899,0.2159 -0.215899,0.537633 0,0.321733 0.215899,0.537633 0.2159,0.215899 0.529167,0.215899 z"
           style="font-family:SVN-Gilroy;-inkscape-font-specification:SVN-Gilroy"
           id="path52313" />
        <path
           d="m 65.956483,86.718601 h 0.368299 v 2.116665 H 65.956483 V 88.4712 q -0.275167,0.419099 -0.8001,0.419099 -0.448733,0 -0.757766,-0.321733 -0.313266,-0.325966 -0.313266,-0.791632 0,-0.461433 0.313266,-0.7874 0.313267,-0.325966 0.757766,-0.325966 0.524933,0 0.8001,0.4191 z M 65.20295,88.5347 q 0.321733,0 0.537633,-0.2159 0.2159,-0.220133 0.2159,-0.541866 0,-0.321733 -0.2159,-0.537633 -0.2159,-0.220133 -0.537633,-0.220133 -0.3175,0 -0.5334,0.220133 -0.2159,0.2159 -0.2159,0.537633 0,0.321733 0.2159,0.541866 0.2159,0.2159 0.5334,0.2159 z"
           style="font-family:SVN-Gilroy;-inkscape-font-specification:SVN-Gilroy"
           id="path52315" />
        <path
           d="m 67.069846,86.456135 q -0.105834,0 -0.1778,-0.07197 -0.07197,-0.07197 -0.07197,-0.173566 0,-0.1016 0.07197,-0.173567 0.07197,-0.0762 0.1778,-0.0762 0.1016,0 0.173566,0.0762 0.07197,0.07197 0.07197,0.173567 0,0.1016 -0.07197,0.173566 -0.07197,0.07197 -0.173566,0.07197 z m -0.186267,2.379131 v -2.116665 h 0.3683 v 2.116665 z"
           style="font-family:SVN-Gilroy;-inkscape-font-specification:SVN-Gilroy"
           id="path52317" />
        <path
           d="m 68.128172,87.290101 q 0,0.122766 0.118534,0.198966 0.122766,0.07197 0.300566,0.118533 0.122767,0.0254 0.258233,0.06773 0.135467,0.04233 0.249767,0.1143 0.1143,0.07197 0.186266,0.186266 0.07197,0.110067 0.07197,0.2794 0,0.287866 -0.224367,0.461433 -0.224366,0.173566 -0.567266,0.173566 -0.309033,0 -0.529166,-0.131233 Q 67.772573,88.6236 67.679439,88.395 l 0.3175,-0.182033 q 0.0508,0.1524 0.1905,0.241299 0.1397,0.0889 0.334433,0.0889 0.182033,0 0.300566,-0.06773 0.118534,-0.07197 0.118534,-0.220133 0,-0.122767 -0.122767,-0.194733 -0.118533,-0.0762 -0.296333,-0.118533 -0.127,-0.03387 -0.262466,-0.0762 -0.135467,-0.04233 -0.249767,-0.110067 -0.110066,-0.07197 -0.182033,-0.182033 -0.07197,-0.110067 -0.07197,-0.2794 0,-0.275166 0.211667,-0.452966 0.2159,-0.1778 0.537633,-0.1778 0.258233,0 0.457199,0.118533 0.2032,0.1143 0.3048,0.321733 l -0.309033,0.173567 q -0.1143,-0.270933 -0.452966,-0.270933 -0.156633,0 -0.2667,0.0762 -0.110067,0.07197 -0.110067,0.207433 z"
           style="font-family:SVN-Gilroy;-inkscape-font-specification:SVN-Gilroy"
           id="path52319" />
      </g>
    </g>
  </g>
</svg>
